<svg xmlns="http://www.w3.org/2000/svg" viewBox="0 0 2000 2000" role="img" aria-label="Logo Gereformeerde Gemeente Emmeloord">
<!-- Opgeschoonde potrace-versie van het originele logo:
     de vier hoekvlakken (zwarte dia-achtergrond) zijn verwijderd,
     ring + kerkgebouw zijn behouden en bruin gekleurd,
     met een witte schijf eronder zodat het als badge werkt. -->
<circle cx="1000" cy="1000" r="960" fill="#ffffff"/>
<g transform="translate(0,2000) scale(0.1,-0.1)" fill="#7d5c48" stroke="none">
<path d="M9570 19674 c-25 -2 -117 -8 -205 -14 -1538 -102 -3004 -561 -4333
-1357 -1232 -737 -2302 -1761 -3097 -2963 -227 -342 -403 -647 -578 -995 -466
-933 -756 -1841 -917 -2875 -41 -258 -65 -479 -95 -865 -13 -173 -17 -858 -6
-1070 65 -1241 337 -2383 829 -3485 116 -260 372 -752 521 -1000 505 -841
1078 -1542 1801 -2204 1180 -1080 2644 -1862 4195 -2241 1045 -255 2118 -335
3200 -239 1342 119 2652 523 3835 1184 1372 766 2539 1855 3403 3176 649 992
1129 2152 1361 3289 61 298 81 419 125 730 16 109 49 453 63 640 22 316 16
1035 -13 1405 -19 245 -70 658 -105 850 -134 738 -296 1313 -541 1930 -582
1464 -1499 2748 -2693 3775 -1128 970 -2455 1663 -3882 2030 -583 149 -1087
232 -1703 281 -185 14 -1045 28 -1165 18z m1105 -263 c541 -44 950 -103 1415
-207 1335 -297 2652 -922 3725 -1767 489 -385 895 -770 1296 -1227 1244 -1419
2030 -3173 2259 -5040 55 -448 65 -646 64 -1195 -1 -557 -26 -903 -100 -1390
-152 -994 -445 -1912 -899 -2814 -446 -886 -1009 -1670 -1715 -2384 -953 -967
-2072 -1701 -3340 -2190 -267 -104 -453 -165 -785 -261 -912 -263 -1855 -381
-2835 -356 -190 5 -426 16 -525 24 -1788 149 -3472 790 -4895 1862 -367 277
-654 527 -991 863 -488 488 -850 930 -1214 1481 -737 1117 -1222 2352 -1435
3660 -151 930 -163 1906 -34 2825 96 691 256 1330 489 1960 360 972 854 1841
1513 2664 203 254 388 458 672 742 487 489 897 824 1485 1216 1147 764 2517
1281 3890 1467 309 42 795 83 1065 89 168 4 751 -11 895 -22z M7981 16281
c-8 -5 -11 -39 -9 -107 l3 -99 770 -7 c424 -4 1346 -7 2050 -5 l1280 2 3 103
c2 77 -1 103 -10 106 -24 8 -4075 14 -4087 7z M8256 14828 c-5 -956 -15 -5921
-17 -8268 l0 -885 204 -3 205 -2 7 1142 c4 629 10 1791 14 2582 l6 1440 180
78 c99 42 204 89 233 103 l52 25 0 485 c0 395 2 487 13 491 8 3 430 1 938 -3
l924 -8 0 -498 0 -498 85 -38 c47 -21 140 -62 208 -91 l122 -54 1 -1100 c1
-606 0 -1353 -1 -1661 -1 -308 1 -975 5 -1483 l8 -922 196 2 196 3 6 2010 c3
1106 8 3407 10 5115 l4 3105 -1796 3 -1797 2 -6 -1072z m2759 -953 l0 -730
-720 -3 c-396 -2 -816 0 -932 3 l-213 7 0 722 c0 398 3 726 7 729 3 4 423 6
932 5 l926 -3 0 -730z M9900 11139 c-15 -9 -122 -55 -580 -249 -146 -62 -283
-120 -305 -130 -22 -10 -63 -27 -91 -39 l-51 -22 -6 -1742 c-4 -958 -10 -2090
-14 -2514 l-6 -773 539 0 539 0 4 2734 c2 1565 0 2735 -5 2738 -5 3 -16 2 -24
-3z M10170 8610 c0 -1393 -3 -2590 -6 -2659 -3 -69 -2 -162 3 -206 l8 -79 526
-4 c323 -3 529 -1 532 5 7 12 -9 5022 -16 5030 -8 7 -999 433 -1024 439 l-23
6 0 -2532z M7810 10389 c-96 -44 -274 -127 -395 -183 -121 -57 -239 -111 -262
-121 -23 -10 -44 -24 -47 -30 -2 -7 -6 -995 -7 -2196 l-3 -2184 447 -3 447 -2
0 1303 c0 717 3 1797 7 2400 4 662 3 1097 -3 1096 -5 0 -88 -36 -184 -80z
M12090 9754 c0 -396 -3 -1478 -7 -2406 l-6 -1688 461 0 462 0 0 1083 c0 596
3 1584 7 2195 l6 1111 -24 10 c-13 5 -95 43 -182 85 -87 42 -160 76 -162 76
-1 0 -93 43 -203 95 -111 52 -230 106 -264 121 -35 14 -69 28 -75 31 -10 4
-13 -142 -13 -713z M6575 9873 c-137 -58 -340 -143 -450 -189 l-200 -83 -3
-1965 -2 -1966 455 0 455 0 0 858 c0 471 3 1441 7 2155 4 783 3 1297 -3 1296
-5 0 -121 -48 -259 -106z M13267 8748 c-4 -673 -7 -1643 -7 -2155 l0 -933 454
0 454 0 7 1473 c5 809 9 1692 9 1961 l1 489 -75 32 c-41 18 -178 77 -305 130
-126 54 -293 124 -370 157 -77 33 -145 62 -151 64 -8 4 -13 -346 -17 -1218z
M4244 5421 c-44 -27 -64 -59 -64 -104 0 -48 25 -86 69 -104 30 -13 814 -16
5795 -25 5293 -10 5764 -10 5799 5 69 30 85 123 32 184 l-23 28 -644 6 c-353
4 -2870 9 -5593 13 -2722 3 -5038 9 -5145 12 -182 5 -197 4 -226 -15z"/>
</g>
</svg>
